<svg id="visual" viewBox="0 0 1920 1080" width="1920" height="1080" xmlns="http://www.w3.org/2000/svg" xmlns:xlink="http://www.w3.org/1999/xlink" version="1.1"><rect x="0" y="0" width="1920" height="1080" fill="#0e0e0e"></rect><path d="M0 893L32 902.2C64 911.3 128 929.7 192 940.7C256 951.7 320 955.3 384 951.3C448 947.3 512 935.7 576 931.8C640 928 704 932 768 929.7C832 927.3 896 918.7 960 927.5C1024 936.3 1088 962.7 1152 959C1216 955.3 1280 921.7 1344 921.2C1408 920.7 1472 953.3 1536 969.5C1600 985.7 1664 985.3 1728 979.5C1792 973.7 1856 962.3 1888 956.7L1920 951L1920 1081L1888 1081C1856 1081 1792 1081 1728 1081C1664 1081 1600 1081 1536 1081C1472 1081 1408 1081 1344 1081C1280 1081 1216 1081 1152 1081C1088 1081 1024 1081 960 1081C896 1081 832 1081 768 1081C704 1081 640 1081 576 1081C512 1081 448 1081 384 1081C320 1081 256 1081 192 1081C128 1081 64 1081 32 1081L0 1081Z" fill="#4facf7"></path><path d="M0 935L32 947.5C64 960 128 985 192 998.3C256 1011.7 320 1013.3 384 1007.3C448 1001.3 512 987.7 576 974C640 960.3 704 946.7 768 949.3C832 952 896 971 960 982.7C1024 994.3 1088 998.7 1152 995C1216 991.3 1280 979.7 1344 972.5C1408 965.3 1472 962.7 1536 965.5C1600 968.3 1664 976.7 1728 979C1792 981.3 1856 977.7 1888 975.8L1920 974L1920 1081L1888 1081C1856 1081 1792 1081 1728 1081C1664 1081 1600 1081 1536 1081C1472 1081 1408 1081 1344 1081C1280 1081 1216 1081 1152 1081C1088 1081 1024 1081 960 1081C896 1081 832 1081 768 1081C704 1081 640 1081 576 1081C512 1081 448 1081 384 1081C320 1081 256 1081 192 1081C128 1081 64 1081 32 1081L0 1081Z" fill="#1e97fd"></path><path d="M0 1015L32 1014.5C64 1014 128 1013 192 1017C256 1021 320 1030 384 1027.3C448 1024.7 512 1010.3 576 999.8C640 989.3 704 982.7 768 986C832 989.3 896 1002.7 960 1007.7C1024 1012.7 1088 1009.3 1152 1008.2C1216 1007 1280 1008 1344 1008.2C1408 1008.3 1472 1007.7 1536 1012.5C1600 1017.3 1664 1027.7 1728 1032.2C1792 1036.7 1856 1035.3 1888 1034.7L1920 1034L1920 1081L1888 1081C1856 1081 1792 1081 1728 1081C1664 1081 1600 1081 1536 1081C1472 1081 1408 1081 1344 1081C1280 1081 1216 1081 1152 1081C1088 1081 1024 1081 960 1081C896 1081 832 1081 768 1081C704 1081 640 1081 576 1081C512 1081 448 1081 384 1081C320 1081 256 1081 192 1081C128 1081 64 1081 32 1081L0 1081Z" fill="#0080ff"></path><path d="M0 1061L32 1061C64 1061 128 1061 192 1058.3C256 1055.7 320 1050.3 384 1046C448 1041.7 512 1038.3 576 1040.7C640 1043 704 1051 768 1052C832 1053 896 1047 960 1040.2C1024 1033.3 1088 1025.7 1152 1026.2C1216 1026.7 1280 1035.3 1344 1033.5C1408 1031.7 1472 1019.3 1536 1021.7C1600 1024 1664 1041 1728 1046.7C1792 1052.3 1856 1046.7 1888 1043.8L1920 1041L1920 1081L1888 1081C1856 1081 1792 1081 1728 1081C1664 1081 1600 1081 1536 1081C1472 1081 1408 1081 1344 1081C1280 1081 1216 1081 1152 1081C1088 1081 1024 1081 960 1081C896 1081 832 1081 768 1081C704 1081 640 1081 576 1081C512 1081 448 1081 384 1081C320 1081 256 1081 192 1081C128 1081 64 1081 32 1081L0 1081Z" fill="#0066ff"></path></svg>