<svg id="visual" viewBox="0 0 1920 1080" width="1920" height="1080" xmlns="http://www.w3.org/2000/svg" xmlns:xlink="http://www.w3.org/1999/xlink" version="1.1"><rect x="0" y="0" width="1920" height="1080" fill="#0e0e0e"></rect><path d="M0 92L32 87.3C64 82.7 128 73.3 192 67.8C256 62.3 320 60.7 384 62.8C448 65 512 71 576 72.8C640 74.7 704 72.3 768 73.3C832 74.3 896 78.7 960 74.3C1024 70 1088 57 1152 59C1216 61 1280 78 1344 78.2C1408 78.3 1472 61.7 1536 53.5C1600 45.3 1664 45.7 1728 48.7C1792 51.7 1856 57.3 1888 60.2L1920 63L1920 0L1888 0C1856 0 1792 0 1728 0C1664 0 1600 0 1536 0C1472 0 1408 0 1344 0C1280 0 1216 0 1152 0C1088 0 1024 0 960 0C896 0 832 0 768 0C704 0 640 0 576 0C512 0 448 0 384 0C320 0 256 0 192 0C128 0 64 0 32 0L0 0Z" fill="#4facf7"></path><path d="M0 71L32 64.7C64 58.3 128 45.7 192 39C256 32.3 320 31.7 384 34.7C448 37.7 512 44.3 576 51.2C640 58 704 65 768 63.7C832 62.3 896 52.7 960 46.8C1024 41 1088 39 1152 40.8C1216 42.7 1280 48.3 1344 52C1408 55.7 1472 57.3 1536 56C1600 54.7 1664 50.3 1728 49.2C1792 48 1856 50 1888 51L1920 52L1920 0L1888 0C1856 0 1792 0 1728 0C1664 0 1600 0 1536 0C1472 0 1408 0 1344 0C1280 0 1216 0 1152 0C1088 0 1024 0 960 0C896 0 832 0 768 0C704 0 640 0 576 0C512 0 448 0 384 0C320 0 256 0 192 0C128 0 64 0 32 0L0 0Z" fill="#1e97fd"></path><path d="M0 31L32 31.3C64 31.7 128 32.3 192 30.3C256 28.3 320 23.7 384 25C448 26.3 512 33.7 576 38.8C640 44 704 47 768 45.2C832 43.3 896 36.7 960 34.2C1024 31.7 1088 33.3 1152 34C1216 34.7 1280 34.3 1344 34.3C1408 34.3 1472 34.7 1536 32.3C1600 30 1664 25 1728 22.7C1792 20.3 1856 20.7 1888 20.8L1920 21L1920 0L1888 0C1856 0 1792 0 1728 0C1664 0 1600 0 1536 0C1472 0 1408 0 1344 0C1280 0 1216 0 1152 0C1088 0 1024 0 960 0C896 0 832 0 768 0C704 0 640 0 576 0C512 0 448 0 384 0C320 0 256 0 192 0C128 0 64 0 32 0L0 0Z" fill="#0080ff"></path><path d="M0 8L32 8C64 8 128 8 192 9.3C256 10.7 320 13.3 384 15.5C448 17.7 512 19.3 576 18.2C640 17 704 13 768 12.5C832 12 896 15 960 18.3C1024 21.7 1088 25.3 1152 25.2C1216 25 1280 21 1344 22C1408 23 1472 29 1536 27.8C1600 26.7 1664 18.3 1728 15.5C1792 12.7 1856 15.3 1888 16.7L1920 18L1920 0L1888 0C1856 0 1792 0 1728 0C1664 0 1600 0 1536 0C1472 0 1408 0 1344 0C1280 0 1216 0 1152 0C1088 0 1024 0 960 0C896 0 832 0 768 0C704 0 640 0 576 0C512 0 448 0 384 0C320 0 256 0 192 0C128 0 64 0 32 0L0 0Z" fill="#0066ff"></path></svg>